<svg width="256" height="256" viewBox="0 0 360 360" fill="none" xmlns="http://www.w3.org/2000/svg">
	<!-- The Mailyard mark: a filled disc with the send arrow knocked out.
	     Single-sourced from src/components/Logo.jsx — keep the path in sync. -->
	<path fill-rule="evenodd" clip-rule="evenodd" d="M180 0C279.411 1.64109e-06 360 80.5888 360 180C360 279.411 279.411 360 180 360C80.5888 360 1.56177e-06 279.411 0 180C0 80.5887 80.5887 0 180 0ZM52.1162 156.537C50.5682 157.079 49.5073 158.511 49.4404 160.149C49.3736 161.788 50.314 163.302 51.8125 163.968L151.656 208.343L196.032 308.188C196.698 309.686 198.212 310.626 199.851 310.56C201.489 310.493 202.921 309.432 203.463 307.884L282.203 82.9111C282.01 83.4511 281.698 83.9582 281.266 84.3906L157.516 208.141C155.954 209.703 153.421 209.703 151.859 208.141C150.297 206.579 150.297 204.046 151.859 202.484L275.609 78.7344C276.042 78.3021 276.548 77.9899 277.088 77.7969L52.1162 156.537Z" fill="#2395E7"/>
</svg>
