<svg width="256" height="256" viewBox="0 0 100 100" fill="none" xmlns="http://www.w3.org/2000/svg">
	<!-- The Mailyard mark: a filled disc with the send arrow knocked out.
	     Single-sourced from src/components/Logo.jsx — keep the path in sync. -->
	<path d="M50 0C77.6142 7.99448e-07 100 22.3858 100 50C100 77.6142 77.6142 100 50 100C22.3858 100 1.12106e-06 77.6142 0 50C0 22.3858 22.3858 0 50 0ZM13.5225 40.7559C11.9745 41.2977 10.9135 42.7295 10.8467 44.3682C10.7798 46.0067 11.7202 47.5203 13.2188 48.1865L39.9375 60.0615L51.8135 86.7812C52.4797 88.2798 53.9932 89.2202 55.6318 89.1533C57.2705 89.0865 58.7023 88.0255 59.2441 86.4775L81.1094 24.0049C80.9164 24.5449 80.6043 25.0519 80.1719 25.4844L45.7969 59.8594C44.2348 61.4215 41.7027 61.4215 40.1406 59.8594C38.5785 58.2973 38.5785 55.7652 40.1406 54.2031L74.5156 19.8281C74.9479 19.3959 75.4545 19.0837 75.9941 18.8906L13.5225 40.7559Z" fill="#2395E7"/>
</svg>
